<svg width="526" height="140" viewBox="0 0 526 140" fill="none" xmlns="http://www.w3.org/2000/svg">
<path d="M0 31.8182C0 14.2455 14.2455 0 31.8182 0H108.182C125.755 0 140 14.2455 140 31.8182V108.182C140 125.755 125.755 140 108.182 140H31.8182C14.2455 140 0 125.755 0 108.182V31.8182Z" fill="white"/>
<path d="M63.6364 89.0909V66.8182" stroke="#1E40AF" stroke-width="6.36364" stroke-linecap="round" stroke-linejoin="round"/>
<path d="M67.2 38.8118C68.0731 38.3877 69.0316 38.169 70.0022 38.1723C70.9728 38.1756 71.9298 38.4009 72.8 38.8309L97.8282 51.0714C99.3427 51.8128 98.8145 54.0909 97.1282 54.0909H42.8718C41.1854 54.0909 40.6604 51.8128 42.1718 51.0714L67.2 38.8118Z" stroke="#1E40AF" stroke-width="6.36364" stroke-linecap="round" stroke-linejoin="round"/>
<path d="M76.3636 89.0909V66.8182" stroke="#1E40AF" stroke-width="6.36364" stroke-linecap="round" stroke-linejoin="round"/>
<path d="M89.0909 89.0909V66.8182" stroke="#1E40AF" stroke-width="6.36364" stroke-linecap="round" stroke-linejoin="round"/>
<path d="M41.3636 101.818H98.6364" stroke="#1E40AF" stroke-width="6.36364" stroke-linecap="round" stroke-linejoin="round"/>
<path d="M50.9091 89.0909V66.8182" stroke="#1E40AF" stroke-width="6.36364" stroke-linecap="round" stroke-linejoin="round"/>
<path d="M184.545 17.5C184.545 16.6214 185.258 15.9091 186.136 15.9091V15.9091C187.015 15.9091 187.727 16.6214 187.727 17.5V122.5C187.727 123.379 187.015 124.091 186.136 124.091V124.091C185.258 124.091 184.545 123.379 184.545 122.5V17.5Z" fill="white"/>
<path d="M232.273 29.9091C232.273 27.2732 234.41 25.1364 237.045 25.1364V25.1364C239.681 25.1364 241.818 27.2732 241.818 29.9091V29.9091C241.818 32.545 239.681 34.6819 237.045 34.6819V34.6819C234.41 34.6819 232.273 32.545 232.273 29.9091V29.9091Z" fill="white"/>
<path d="M279.357 14.4041H284.992V38.9041H279.357V14.4041ZM283.452 23.9941H289.087V28.6141H283.452V23.9941ZM258.917 17.5191H278.202V21.8941H258.917V17.5191ZM268.577 22.7341C270.164 22.7341 271.576 23.0141 272.812 23.5741C274.049 24.1108 275.017 24.8691 275.717 25.8491C276.417 26.8058 276.767 27.9141 276.767 29.1741C276.767 30.4341 276.417 31.5541 275.717 32.5341C275.017 33.4908 274.049 34.2491 272.812 34.8091C271.576 35.3458 270.164 35.6141 268.577 35.6141C266.991 35.6141 265.579 35.3458 264.342 34.8091C263.106 34.2491 262.137 33.4908 261.437 32.5341C260.737 31.5541 260.387 30.4341 260.387 29.1741C260.387 27.9141 260.737 26.8058 261.437 25.8491C262.137 24.8691 263.106 24.1108 264.342 23.5741C265.579 23.0141 266.991 22.7341 268.577 22.7341ZM268.577 26.9691C267.784 26.9691 267.119 27.1558 266.582 27.5291C266.069 27.8791 265.812 28.4275 265.812 29.1741C265.812 29.9208 266.069 30.4808 266.582 30.8541C267.119 31.2041 267.784 31.3791 268.577 31.3791C269.394 31.3791 270.059 31.2041 270.572 30.8541C271.086 30.4808 271.342 29.9208 271.342 29.1741C271.342 28.4275 271.086 27.8791 270.572 27.5291C270.059 27.1558 269.394 26.9691 268.577 26.9691ZM265.742 14.3341H271.377V19.6191H265.742V14.3341ZM263.432 42.2641H286.007V46.7441H263.432V42.2641ZM263.432 37.1191H269.102V44.2241H263.432V37.1191ZM294.825 22.5941H317.715V27.0041H294.825V22.5941ZM294.825 15.0691H300.46V24.2741H294.825V15.0691ZM291.22 29.3491H320.935V33.7591H291.22V29.3491ZM303.68 32.4991H309.35V38.9391H303.68V32.4991ZM294.51 42.2991H317.89V46.7441H294.51V42.2991ZM294.51 36.6991H300.145V44.7491H294.51V36.6991ZM336.367 26.0941H341.337V30.6091H336.367V26.0941ZM346.377 14.3691H351.732V47.1991H346.377V14.3691ZM339.587 14.7891H344.837V45.8341H339.587V14.7891ZM330.732 16.4341C332.202 16.4341 333.473 16.9241 334.547 17.9041C335.643 18.8841 336.483 20.2841 337.067 22.1041C337.65 23.9241 337.942 26.1058 337.942 28.6491C337.942 31.1925 337.65 33.3858 337.067 35.2291C336.483 37.0491 335.643 38.4491 334.547 39.4291C333.473 40.3858 332.202 40.8641 330.732 40.8641C329.285 40.8641 328.013 40.3858 326.917 39.4291C325.843 38.4491 325.015 37.0491 324.432 35.2291C323.848 33.3858 323.557 31.1925 323.557 28.6491C323.557 26.1058 323.848 23.9241 324.432 22.1041C325.015 20.2841 325.843 18.8841 326.917 17.9041C328.013 16.9241 329.285 16.4341 330.732 16.4341ZM330.732 21.7891C330.288 21.7891 329.903 22.0225 329.577 22.4891C329.273 22.9558 329.04 23.6908 328.877 24.6941C328.737 25.6975 328.667 27.0158 328.667 28.6491C328.667 30.2591 328.737 31.5775 328.877 32.6041C329.04 33.6075 329.273 34.3425 329.577 34.8091C329.903 35.2758 330.288 35.5091 330.732 35.5091C331.198 35.5091 331.583 35.2758 331.887 34.8091C332.213 34.3425 332.447 33.6075 332.587 32.6041C332.75 31.5775 332.832 30.2591 332.832 28.6491C332.832 27.0158 332.75 25.6975 332.587 24.6941C332.447 23.6908 332.213 22.9558 331.887 22.4891C331.583 22.0225 331.198 21.7891 330.732 21.7891Z" fill="white"/>
<path d="M241.055 66.8H278.536V74.8818H241.055V66.8ZM234.564 86.9728H288.591V95.1182H234.564V86.9728ZM256.391 92.7637H266.636V104.473H256.391V92.7637ZM272.491 66.8H282.609V71.7637C282.609 74.394 282.524 77.2576 282.355 80.3546C282.227 83.4091 281.718 86.8455 280.827 90.6637L270.709 89.7728C271.6 85.997 272.109 82.7091 272.236 79.9091C272.406 77.0667 272.491 74.3515 272.491 71.7637V66.8ZM239.909 102.182H282.545V124.136H272.3V110.2H239.909V102.182ZM307.168 100.973H317.413V110.582H307.168V100.973ZM333.259 64.4455H343.504V124.136H333.259V64.4455ZM294.504 114.973L293.359 106.764C296.88 106.764 300.719 106.742 304.877 106.7C309.077 106.658 313.383 106.53 317.795 106.318C322.207 106.064 326.471 105.661 330.586 105.109L331.286 112.427C327.001 113.233 322.695 113.827 318.368 114.209C314.04 114.549 309.84 114.761 305.768 114.845C301.737 114.93 297.983 114.973 294.504 114.973ZM294.44 70.6182H330.204V78.5728H294.44V70.6182ZM312.322 80.3546C315.292 80.3546 317.922 80.8425 320.213 81.8182C322.504 82.7515 324.286 84.0667 325.559 85.7637C326.874 87.4182 327.531 89.3697 327.531 91.6182C327.531 93.8243 326.874 95.797 325.559 97.5364C324.286 99.2334 322.504 100.57 320.213 101.545C317.922 102.479 315.292 102.945 312.322 102.945C309.395 102.945 306.786 102.479 304.495 101.545C302.204 100.57 300.401 99.2334 299.086 97.5364C297.813 95.797 297.177 93.8243 297.177 91.6182C297.177 89.3697 297.813 87.4182 299.086 85.7637C300.401 84.0667 302.204 82.7515 304.495 81.8182C306.786 80.8425 309.395 80.3546 312.322 80.3546ZM312.322 87.9909C310.753 87.9909 309.459 88.2879 308.44 88.8818C307.465 89.4758 306.977 90.3879 306.977 91.6182C306.977 92.8909 307.465 93.8243 308.44 94.4182C309.459 95.0122 310.753 95.3091 312.322 95.3091C313.934 95.3091 315.228 95.0122 316.204 94.4182C317.222 93.8243 317.731 92.8909 317.731 91.6182C317.731 90.3879 317.222 89.4758 316.204 88.8818C315.228 88.2879 313.934 87.9909 312.322 87.9909ZM307.168 64.7637H317.477V75.2637H307.168V64.7637ZM370.736 68.1364C373.875 68.1364 376.696 68.794 379.199 70.1091C381.745 71.3818 383.739 73.1637 385.181 75.4546C386.666 77.7031 387.408 80.2909 387.408 83.2182C387.408 86.1031 386.666 88.6909 385.181 90.9818C383.739 93.2728 381.745 95.0758 379.199 96.3909C376.696 97.6637 373.875 98.3 370.736 98.3C367.596 98.3 364.754 97.6637 362.208 96.3909C359.705 95.0758 357.711 93.2728 356.226 90.9818C354.742 88.6909 353.999 86.1031 353.999 83.2182C353.999 80.2909 354.742 77.7031 356.226 75.4546C357.711 73.1637 359.705 71.3818 362.208 70.1091C364.754 68.794 367.596 68.1364 370.736 68.1364ZM370.736 76.9182C369.505 76.9182 368.381 77.1515 367.363 77.6182C366.345 78.0849 365.539 78.7849 364.945 79.7182C364.351 80.6515 364.054 81.8182 364.054 83.2182C364.054 84.6182 364.351 85.8061 364.945 86.7819C365.539 87.7152 366.345 88.4152 367.363 88.8818C368.381 89.3485 369.505 89.5819 370.736 89.5819C371.966 89.5819 373.069 89.3485 374.045 88.8818C375.063 88.4152 375.869 87.7152 376.463 86.7819C377.057 85.8061 377.354 84.6182 377.354 83.2182C377.354 81.8182 377.057 80.6515 376.463 79.7182C375.869 78.7849 375.063 78.0849 374.045 77.6182C373.069 77.1515 371.966 76.9182 370.736 76.9182ZM391.799 64.3182H402.045V124.264H391.799V64.3182ZM352.981 112.682L351.836 104.473C355.272 104.473 359.069 104.452 363.226 104.409C367.384 104.324 371.669 104.155 376.081 103.9C380.493 103.603 384.757 103.158 388.872 102.564L389.572 109.945C385.372 110.794 381.087 111.409 376.717 111.791C372.39 112.173 368.19 112.427 364.117 112.555C360.087 112.639 356.375 112.682 352.981 112.682ZM424.949 95.3728H435.194V108.291H424.949V95.3728ZM450.912 64.3818H461.158V109.5H450.912V64.3818ZM416.931 115.1H462.431V123.245H416.931V115.1ZM416.931 105.3H427.176V117.264H416.931V105.3ZM411.203 98.2364L409.994 90.1546C413.6 90.1122 417.524 90.0697 421.767 90.0273C426.052 89.9425 430.4 89.7728 434.812 89.5182C439.267 89.2637 443.552 88.8819 447.667 88.3728L448.303 95.6273C444.103 96.3485 439.818 96.9 435.449 97.2818C431.121 97.6637 426.879 97.9182 422.721 98.0455C418.606 98.1303 414.767 98.194 411.203 98.2364ZM440.158 98.7455H453.076V105.618H440.158V98.7455ZM429.085 66.2273C432.012 66.2273 434.6 66.694 436.849 67.6273C439.097 68.5182 440.858 69.7909 442.131 71.4455C443.403 73.0576 444.04 74.9243 444.04 77.0455C444.04 79.1667 443.403 81.0546 442.131 82.7091C440.858 84.3212 439.097 85.5728 436.849 86.4637C434.6 87.3546 432.012 87.8 429.085 87.8C426.158 87.8 423.549 87.3546 421.258 86.4637C419.009 85.5728 417.249 84.3212 415.976 82.7091C414.703 81.0546 414.067 79.1667 414.067 77.0455C414.067 74.9243 414.703 73.0576 415.976 71.4455C417.249 69.7909 419.009 68.5182 421.258 67.6273C423.549 66.694 426.158 66.2273 429.085 66.2273ZM429.085 73.6728C427.515 73.6728 426.243 73.9273 425.267 74.4364C424.291 74.9455 423.803 75.8152 423.803 77.0455C423.803 78.2334 424.291 79.1031 425.267 79.6546C426.243 80.1637 427.515 80.4182 429.085 80.4182C430.655 80.4182 431.906 80.1637 432.84 79.6546C433.815 79.1031 434.303 78.2334 434.303 77.0455C434.303 76.2394 434.07 75.6031 433.603 75.1364C433.179 74.6273 432.585 74.2667 431.821 74.0546C431.058 73.8 430.146 73.6728 429.085 73.6728Z" fill="white"/>
</svg>
