<svg width="1200" height="630" viewBox="0 0 1200 630" fill="none" xmlns="http://www.w3.org/2000/svg">
<g clip-path="url(#clip0_7_19)">
<path d="M1200 0H0V630H1200V0Z" fill="url(#paint0_linear_7_19)"/>
<path opacity="0.08" d="M600 235C660.751 235 710 217.091 710 195C710 172.909 660.751 155 600 155C539.249 155 490 172.909 490 195C490 217.091 539.249 235 600 235Z" fill="white"/>
<path d="M678 247H522V129H678V247Z" stroke="white"/>
<path d="M587 217.5V183.083" stroke="white" stroke-width="9.82" stroke-linecap="round" stroke-linejoin="round"/>
<path d="M594.28 139.807C596.063 139.151 598.022 138.813 600.004 138.819C601.987 138.824 603.942 139.172 605.72 139.836L656.849 158.751C659.943 159.896 658.864 163.417 655.419 163.417H544.581C541.136 163.417 540.063 159.896 543.151 158.751L594.28 139.807Z" fill="white" stroke="white" stroke-width="9.82" stroke-linecap="round" stroke-linejoin="round"/>
<path d="M613 217.5V183.083" stroke="white" stroke-width="9.82" stroke-linecap="round" stroke-linejoin="round"/>
<path d="M639 217.5V183.083" stroke="white" stroke-width="9.82" stroke-linecap="round" stroke-linejoin="round"/>
<path d="M541.5 237.167H658.5" stroke="white" stroke-width="9.82" stroke-linecap="round" stroke-linejoin="round"/>
<path d="M561 217.5V183.083" stroke="white" stroke-width="9.82" stroke-linecap="round" stroke-linejoin="round"/>
<path d="M362.663 266.344H374.367V327.24H362.663V266.344ZM371.111 291.16H385.191V300.84H371.111V291.16ZM310.303 274.88H358.175V284.032H310.303V274.88ZM334.239 286.936C338.17 286.936 341.631 287.611 344.623 288.96C347.674 290.251 350.05 292.099 351.751 294.504C353.453 296.851 354.303 299.549 354.303 302.6C354.303 305.709 353.453 308.467 351.751 310.872C350.05 313.219 347.674 315.067 344.623 316.416C341.631 317.707 338.17 318.352 334.239 318.352C330.367 318.352 326.906 317.707 323.855 316.416C320.805 315.067 318.429 313.219 316.727 310.872C315.026 308.467 314.175 305.709 314.175 302.6C314.175 299.549 315.026 296.851 316.727 294.504C318.429 292.099 320.805 290.251 323.855 288.96C326.906 287.611 330.367 286.936 334.239 286.936ZM334.239 295.824C331.658 295.824 329.546 296.411 327.903 297.584C326.261 298.757 325.439 300.459 325.439 302.688C325.439 304.859 326.261 306.531 327.903 307.704C329.546 308.877 331.658 309.464 334.239 309.464C336.879 309.464 338.991 308.877 340.575 307.704C342.218 306.531 343.039 304.859 343.039 302.688C343.039 300.459 342.218 298.757 340.575 297.584C338.991 296.411 336.879 295.824 334.239 295.824ZM328.431 266.256H340.047V279.28H328.431V266.256ZM321.831 337.008H377.271V346.424H321.831V337.008ZM321.831 322.664H333.623V341.056H321.831V322.664ZM400.672 288.168H456.904V297.408H400.672V288.168ZM400.672 268.456H412.288V291.776H400.672V268.456ZM391.344 304.536H465V313.776H391.344V304.536ZM423.2 310.96H434.904V327.944H423.2V310.96ZM399.88 337.096H457.344V346.424H399.88V337.096ZM399.88 321.872H411.584V342.024H399.88V321.872ZM504.77 296.264H518.146V305.68H504.77V296.264ZM530.994 266.256H542.17V347.744H530.994V266.256ZM514.45 267.576H525.362V344.136H514.45V267.576ZM490.514 271.976C494.092 271.976 497.202 273.179 499.842 275.584C502.54 277.931 504.594 281.333 506.002 285.792C507.468 290.192 508.202 295.472 508.202 301.632C508.202 307.733 507.468 313.013 506.002 317.472C504.594 321.931 502.54 325.363 499.842 327.768C497.202 330.115 494.063 331.288 490.426 331.288C486.906 331.288 483.796 330.115 481.098 327.768C478.458 325.363 476.404 321.931 474.938 317.472C473.53 313.013 472.826 307.733 472.826 301.632C472.826 295.472 473.53 290.192 474.938 285.792C476.404 281.333 478.458 277.931 481.098 275.584C483.796 273.179 486.935 271.976 490.514 271.976ZM490.514 283.064C489.047 283.064 487.786 283.739 486.73 285.088C485.674 286.437 484.852 288.491 484.266 291.248C483.738 293.947 483.474 297.408 483.474 301.632C483.474 305.739 483.738 309.171 484.266 311.928C484.852 314.685 485.674 316.768 486.73 318.176C487.786 319.525 489.047 320.2 490.514 320.2C491.98 320.2 493.242 319.525 494.298 318.176C495.412 316.768 496.234 314.685 496.762 311.928C497.29 309.171 497.554 305.739 497.554 301.632C497.554 297.408 497.29 293.947 496.762 291.248C496.234 288.491 495.412 286.437 494.298 285.088C493.242 283.739 491.98 283.064 490.514 283.064ZM582.164 269.776H633.732V279.104H582.164V269.776ZM573.1 297.848H646.932V307.264H573.1V297.848ZM604.076 304.448H615.692V321.52H604.076V304.448ZM626.692 269.776H638.22V276.288C638.22 279.808 638.103 283.68 637.868 287.904C637.692 292.069 636.959 296.821 635.668 302.16L624.228 301.104C625.46 295.824 626.164 291.248 626.34 287.376C626.575 283.445 626.692 279.749 626.692 276.288V269.776ZM580.492 318.704H638.396V347.832H626.692V327.944H580.492V318.704ZM674.645 315.888H686.349V329.088H674.645V315.888ZM710.285 266.344H721.989V347.832H710.285V266.344ZM655.813 334.28L654.405 324.776C659.333 324.776 664.701 324.747 670.509 324.688C676.317 324.629 682.272 324.424 688.373 324.072C694.533 323.72 700.459 323.163 706.149 322.4L706.941 330.848C701.016 331.904 695.032 332.696 688.989 333.224C683.005 333.693 677.197 333.987 671.565 334.104C665.933 334.221 660.683 334.28 655.813 334.28ZM655.989 275.32H705.093V284.472H655.989V275.32ZM680.541 287.64C684.531 287.64 688.051 288.285 691.101 289.576C694.152 290.867 696.528 292.656 698.229 294.944C699.989 297.232 700.869 299.901 700.869 302.952C700.869 305.944 699.989 308.613 698.229 310.96C696.528 313.248 694.152 315.037 691.101 316.328C688.051 317.619 684.531 318.264 680.541 318.264C676.552 318.264 673.032 317.619 669.981 316.328C666.931 315.037 664.525 313.248 662.765 310.96C661.064 308.613 660.213 305.944 660.213 302.952C660.213 299.901 661.064 297.232 662.765 294.944C664.525 292.656 666.931 290.867 669.981 289.576C673.032 288.285 676.552 287.64 680.541 287.64ZM680.541 296.44C677.843 296.44 675.643 297.027 673.941 298.2C672.24 299.315 671.389 300.899 671.389 302.952C671.389 305.064 672.24 306.677 673.941 307.792C675.643 308.907 677.843 309.464 680.541 309.464C683.24 309.464 685.44 308.907 687.141 307.792C688.843 306.677 689.693 305.064 689.693 302.952C689.693 300.899 688.843 299.315 687.141 298.2C685.44 297.027 683.24 296.44 680.541 296.44ZM674.645 266.608H686.437V280.6H674.645V266.608ZM761.23 271.712C765.454 271.712 769.268 272.563 772.67 274.264C776.073 275.965 778.742 278.341 780.678 281.392C782.614 284.384 783.582 287.845 783.582 291.776C783.582 295.648 782.614 299.109 780.678 302.16C778.742 305.211 776.073 307.587 772.67 309.288C769.268 310.989 765.454 311.84 761.23 311.84C756.948 311.84 753.105 310.989 749.702 309.288C746.3 307.587 743.601 305.211 741.606 302.16C739.67 299.109 738.702 295.648 738.702 291.776C738.702 287.845 739.67 284.384 741.606 281.392C743.601 278.341 746.3 275.965 749.702 274.264C753.105 272.563 756.948 271.712 761.23 271.712ZM761.23 281.744C759.118 281.744 757.212 282.155 755.51 282.976C753.868 283.739 752.548 284.883 751.55 286.408C750.612 287.875 750.142 289.664 750.142 291.776C750.142 293.888 750.612 295.707 751.55 297.232C752.548 298.757 753.868 299.931 755.51 300.752C757.212 301.515 759.118 301.896 761.23 301.896C763.284 301.896 765.132 301.515 766.774 300.752C768.417 299.931 769.708 298.757 770.646 297.232C771.644 295.707 772.142 293.888 772.142 291.776C772.142 289.664 771.644 287.875 770.646 286.408C769.708 284.883 768.417 283.739 766.774 282.976C765.132 282.155 763.284 281.744 761.23 281.744ZM791.238 266.168H802.942V347.92H791.238V266.168ZM736.678 331.464L735.358 321.96C740.11 321.96 745.361 321.931 751.11 321.872C756.918 321.755 762.873 321.52 768.974 321.168C775.134 320.757 781.089 320.141 786.838 319.32L787.63 327.768C781.764 328.941 775.809 329.792 769.766 330.32C763.724 330.789 757.886 331.112 752.254 331.288C746.622 331.405 741.43 331.464 736.678 331.464ZM837.168 308.144H848.872V325.92H837.168V308.144ZM872.808 266.256H884.512V328.032H872.808V266.256ZM825.816 337.008H886.36V346.424H825.816V337.008ZM825.816 322.136H837.52V339.56H825.816V322.136ZM817.104 311.664L815.608 302.336C820.594 302.277 826.021 302.219 831.888 302.16C837.754 302.043 843.738 301.808 849.84 301.456C855.941 301.104 861.808 300.576 867.44 299.872L868.232 308.232C862.424 309.229 856.498 309.992 850.456 310.52C844.472 310.989 838.634 311.283 832.944 311.4C827.253 311.517 821.973 311.605 817.104 311.664ZM857.496 313.6H875.448V321.608H857.496V313.6ZM841.832 269.072C845.821 269.072 849.341 269.688 852.392 270.92C855.442 272.152 857.818 273.853 859.52 276.024C861.28 278.195 862.16 280.747 862.16 283.68C862.16 286.555 861.28 289.107 859.52 291.336C857.818 293.507 855.442 295.179 852.392 296.352C849.341 297.525 845.821 298.112 841.832 298.112C837.842 298.112 834.293 297.525 831.184 296.352C828.133 295.179 825.757 293.507 824.056 291.336C822.354 289.107 821.504 286.555 821.504 283.68C821.504 280.747 822.354 278.195 824.056 276.024C825.757 273.853 828.133 272.152 831.184 270.92C834.293 269.688 837.842 269.072 841.832 269.072ZM841.832 277.608C839.133 277.608 836.904 278.107 835.144 279.104C833.442 280.101 832.592 281.627 832.592 283.68C832.592 285.616 833.442 287.112 835.144 288.168C836.904 289.165 839.133 289.664 841.832 289.664C844.589 289.664 846.789 289.165 848.432 288.168C850.133 287.112 850.984 285.616 850.984 283.68C850.984 282.331 850.602 281.216 849.84 280.336C849.077 279.456 848.021 278.781 846.672 278.312C845.322 277.843 843.709 277.608 841.832 277.608Z" fill="white"/>
<path d="M304.166 408.876H333.686V411.36H304.166V408.876ZM317.378 410.388H320.33V422.808H317.378V410.388ZM318.854 391.524C321.134 391.524 323.126 391.824 324.83 392.424C326.534 393 327.866 393.828 328.826 394.908C329.786 395.964 330.266 397.224 330.266 398.688C330.266 400.128 329.786 401.388 328.826 402.468C327.866 403.548 326.534 404.376 324.83 404.952C323.126 405.528 321.134 405.816 318.854 405.816C316.622 405.816 314.642 405.528 312.914 404.952C311.21 404.376 309.878 403.548 308.918 402.468C307.958 401.388 307.478 400.128 307.478 398.688C307.478 397.224 307.958 395.964 308.918 394.908C309.878 393.828 311.21 393 312.914 392.424C314.642 391.824 316.622 391.524 318.854 391.524ZM318.854 393.936C317.222 393.936 315.77 394.128 314.498 394.512C313.25 394.896 312.278 395.448 311.582 396.168C310.886 396.864 310.538 397.692 310.538 398.652C310.538 399.636 310.886 400.488 311.582 401.208C312.278 401.904 313.25 402.444 314.498 402.828C315.77 403.212 317.222 403.404 318.854 403.404C320.534 403.404 321.998 403.212 323.246 402.828C324.494 402.444 325.466 401.904 326.162 401.208C326.858 400.488 327.206 399.636 327.206 398.652C327.206 397.692 326.858 396.864 326.162 396.168C325.466 395.448 324.494 394.896 323.246 394.512C321.998 394.128 320.534 393.936 318.854 393.936ZM361.044 390.228H363.996V422.844H361.044V390.228ZM339.192 412.476H341.892C343.74 412.476 345.516 412.452 347.22 412.404C348.948 412.332 350.688 412.212 352.44 412.044C354.216 411.876 356.064 411.636 357.984 411.324L358.272 413.772C355.344 414.252 352.584 414.576 349.992 414.744C347.4 414.888 344.7 414.96 341.892 414.96H339.192V412.476ZM339.12 393.252H354.168V404.88H342.216V413.412H339.192V402.468H351.144V395.7H339.12V393.252ZM387.092 394.908H389.54V400.164C389.54 401.892 389.3 403.596 388.82 405.276C388.34 406.932 387.668 408.504 386.804 409.992C385.964 411.456 384.98 412.752 383.852 413.88C382.724 415.008 381.512 415.896 380.216 416.544L378.488 414.168C379.664 413.592 380.768 412.812 381.8 411.828C382.856 410.844 383.78 409.716 384.572 408.444C385.364 407.172 385.976 405.828 386.408 404.412C386.864 402.996 387.092 401.58 387.092 400.164V394.908ZM387.704 394.908H390.116V400.164C390.116 401.532 390.332 402.9 390.764 404.268C391.22 405.612 391.844 406.884 392.636 408.084C393.452 409.26 394.376 410.304 395.408 411.216C396.464 412.128 397.592 412.848 398.792 413.376L397.136 415.752C395.816 415.128 394.58 414.288 393.428 413.232C392.276 412.176 391.268 410.964 390.404 409.596C389.564 408.204 388.904 406.716 388.424 405.132C387.944 403.524 387.704 401.868 387.704 400.164V394.908ZM379.532 393.576H397.712V396.06H379.532V393.576ZM402.14 390.228H405.128V422.808H402.14V390.228ZM426.437 395.016H436.337V397.464H426.437V395.016ZM426.437 402.324H436.337V404.772H426.437V402.324ZM416.645 411.216H438.389V422.808H435.401V413.628H416.645V411.216ZM435.401 390.228H438.389V409.416H435.401V390.228ZM420.497 392.064C422.081 392.064 423.497 392.4 424.745 393.072C426.017 393.72 427.013 394.644 427.733 395.844C428.477 397.02 428.849 398.364 428.849 399.876C428.849 401.412 428.477 402.768 427.733 403.944C427.013 405.12 426.017 406.044 424.745 406.716C423.497 407.388 422.081 407.724 420.497 407.724C418.889 407.724 417.449 407.388 416.177 406.716C414.929 406.044 413.933 405.12 413.189 403.944C412.469 402.768 412.109 401.412 412.109 399.876C412.109 398.364 412.469 397.02 413.189 395.844C413.933 394.644 414.929 393.72 416.177 393.072C417.449 392.4 418.889 392.064 420.497 392.064ZM420.497 394.62C419.441 394.62 418.493 394.848 417.653 395.304C416.813 395.76 416.153 396.384 415.673 397.176C415.193 397.968 414.953 398.868 414.953 399.876C414.953 400.908 415.193 401.832 415.673 402.648C416.153 403.44 416.813 404.064 417.653 404.52C418.493 404.952 419.441 405.168 420.497 405.168C421.529 405.168 422.465 404.952 423.305 404.52C424.145 404.064 424.805 403.44 425.285 402.648C425.765 401.832 426.005 400.908 426.005 399.876C426.005 398.868 425.765 397.968 425.285 397.176C424.805 396.384 424.145 395.76 423.305 395.304C422.465 394.848 421.529 394.62 420.497 394.62ZM456.517 391.776H477.469V394.224H456.517V391.776ZM452.773 403.404H482.293V405.852H452.773V403.404ZM465.985 405.096H468.973V412.728H465.985V405.096ZM475.525 391.776H478.477V394.152C478.477 395.496 478.429 397.02 478.333 398.724C478.237 400.404 477.925 402.36 477.397 404.592L474.481 404.268C475.009 402.06 475.309 400.152 475.381 398.544C475.477 396.936 475.525 395.472 475.525 394.152V391.776ZM455.833 411.792H478.657V422.808H475.669V414.204H455.833V411.792ZM495.178 409.776H498.166V415.14H495.178V409.776ZM509.434 390.228H512.422V422.808H509.434V390.228ZM486.502 416.616L486.07 414.096C488.134 414.072 490.366 414.048 492.766 414.024C495.166 414 497.614 413.916 500.11 413.772C502.606 413.628 505.018 413.4 507.346 413.088L507.562 415.32C505.162 415.704 502.726 415.992 500.254 416.184C497.782 416.352 495.37 416.472 493.018 416.544C490.666 416.592 488.494 416.616 486.502 416.616ZM486.754 394.224H506.518V396.636H486.754V394.224ZM496.618 398.472C498.178 398.472 499.546 398.724 500.722 399.228C501.898 399.732 502.81 400.44 503.458 401.352C504.13 402.24 504.466 403.296 504.466 404.52C504.466 405.72 504.13 406.776 503.458 407.688C502.81 408.6 501.898 409.308 500.722 409.812C499.546 410.292 498.178 410.532 496.618 410.532C495.082 410.532 493.726 410.292 492.55 409.812C491.374 409.308 490.462 408.6 489.814 407.688C489.166 406.776 488.842 405.72 488.842 404.52C488.842 403.296 489.166 402.24 489.814 401.352C490.462 400.44 491.374 399.732 492.55 399.228C493.726 398.724 495.082 398.472 496.618 398.472ZM496.618 400.812C495.178 400.812 493.99 401.148 493.054 401.82C492.118 402.492 491.65 403.392 491.65 404.52C491.65 405.624 492.118 406.512 493.054 407.184C493.99 407.856 495.178 408.192 496.618 408.192C498.106 408.192 499.306 407.856 500.218 407.184C501.154 406.512 501.622 405.624 501.622 404.52C501.622 403.392 501.154 402.492 500.218 401.82C499.306 401.148 498.106 400.812 496.618 400.812ZM495.178 390.264H498.166V395.52H495.178V390.264ZM529.555 392.604C531.259 392.604 532.759 392.928 534.055 393.576C535.375 394.2 536.407 395.088 537.151 396.24C537.895 397.392 538.267 398.736 538.267 400.272C538.267 401.784 537.895 403.128 537.151 404.304C536.407 405.456 535.375 406.356 534.055 407.004C532.759 407.628 531.259 407.94 529.555 407.94C527.875 407.94 526.375 407.628 525.055 407.004C523.735 406.356 522.691 405.456 521.923 404.304C521.179 403.128 520.807 401.784 520.807 400.272C520.807 398.736 521.179 397.392 521.923 396.24C522.691 395.088 523.735 394.2 525.055 393.576C526.375 392.928 527.875 392.604 529.555 392.604ZM529.555 395.196C528.451 395.196 527.455 395.412 526.567 395.844C525.703 396.252 525.019 396.84 524.515 397.608C524.011 398.376 523.759 399.264 523.759 400.272C523.759 401.28 524.011 402.168 524.515 402.936C525.019 403.704 525.703 404.304 526.567 404.736C527.455 405.144 528.451 405.348 529.555 405.348C530.683 405.348 531.679 405.144 532.543 404.736C533.407 404.304 534.091 403.704 534.595 402.936C535.099 402.168 535.351 401.28 535.351 400.272C535.351 399.264 535.099 398.376 534.595 397.608C534.091 396.84 533.407 396.252 532.543 395.844C531.679 395.412 530.683 395.196 529.555 395.196ZM542.551 390.228H545.539V422.844H542.551V390.228ZM519.583 415.716L519.187 413.196C521.179 413.196 523.363 413.184 525.739 413.16C528.115 413.112 530.563 413.016 533.083 412.872C535.627 412.704 538.075 412.44 540.427 412.08L540.679 414.276C538.231 414.732 535.747 415.068 533.227 415.284C530.731 415.476 528.319 415.596 525.991 415.644C523.663 415.692 521.527 415.716 519.583 415.716ZM561.34 406.644H564.328V413.88H561.34V406.644ZM575.776 390.264H578.764V414.996H575.776V390.264ZM556.552 419.64H579.556V422.088H556.552V419.64ZM556.552 412.584H559.54V420.288H556.552V412.584ZM552.34 407.76L551.944 405.276C553.96 405.276 556.144 405.264 558.496 405.24C560.872 405.192 563.296 405.108 565.768 404.988C568.24 404.844 570.628 404.628 572.932 404.34L573.148 406.5C570.82 406.884 568.42 407.172 565.948 407.364C563.5 407.532 561.112 407.64 558.784 407.688C556.456 407.736 554.308 407.76 552.34 407.76ZM569.152 409.488H576.568V411.648H569.152V409.488ZM562.528 391.56C564.136 391.56 565.54 391.8 566.74 392.28C567.94 392.736 568.864 393.396 569.512 394.26C570.184 395.1 570.52 396.096 570.52 397.248C570.52 398.376 570.184 399.372 569.512 400.236C568.864 401.1 567.94 401.76 566.74 402.216C565.54 402.672 564.136 402.9 562.528 402.9C560.944 402.9 559.54 402.672 558.316 402.216C557.116 401.76 556.18 401.1 555.508 400.236C554.86 399.372 554.536 398.376 554.536 397.248C554.536 396.096 554.86 395.1 555.508 394.26C556.18 393.396 557.116 392.736 558.316 392.28C559.54 391.8 560.944 391.56 562.528 391.56ZM562.528 393.792C560.992 393.792 559.744 394.104 558.784 394.728C557.824 395.352 557.344 396.192 557.344 397.248C557.344 398.28 557.824 399.108 558.784 399.732C559.744 400.356 560.992 400.668 562.528 400.668C564.04 400.668 565.276 400.356 566.236 399.732C567.196 399.108 567.676 398.28 567.676 397.248C567.676 396.528 567.46 395.916 567.028 395.412C566.596 394.908 565.996 394.512 565.228 394.224C564.46 393.936 563.56 393.792 562.528 393.792ZM599.929 390.804C603.529 390.804 606.337 391.296 608.353 392.28C610.369 393.24 611.377 394.62 611.377 396.42C611.377 398.244 610.369 399.648 608.353 400.632C606.337 401.592 603.529 402.072 599.929 402.072C596.353 402.072 593.545 401.592 591.505 400.632C589.489 399.648 588.481 398.244 588.481 396.42C588.481 394.62 589.489 393.24 591.505 392.28C593.545 391.296 596.353 390.804 599.929 390.804ZM599.929 393.036C598.177 393.036 596.677 393.168 595.429 393.432C594.181 393.696 593.221 394.08 592.549 394.584C591.901 395.088 591.577 395.7 591.577 396.42C591.577 397.14 591.901 397.764 592.549 398.292C593.221 398.796 594.181 399.18 595.429 399.444C596.677 399.684 598.177 399.804 599.929 399.804C601.705 399.804 603.217 399.684 604.465 399.444C605.713 399.18 606.661 398.796 607.309 398.292C607.981 397.764 608.317 397.14 608.317 396.42C608.317 395.7 607.981 395.088 607.309 394.584C606.661 394.08 605.713 393.696 604.465 393.432C603.217 393.168 601.705 393.036 599.929 393.036ZM585.241 404.268H614.653V406.68H585.241V404.268ZM588.805 409.452H610.873V416.796H591.793V420.72H588.877V414.6H607.957V411.756H588.805V409.452ZM588.877 420.108H611.845V422.448H588.877V420.108ZM649.377 390.228H652.329V422.808H649.377V390.228ZM650.637 402.936H656.649V405.456H650.637V402.936ZM627.021 393.252H629.577V401.604H633.501V393.252H636.021V414.924H627.021V393.252ZM629.577 404.016V412.44H633.501V404.016H629.577ZM637.749 393.252H640.269V401.604H644.085V393.252H646.605V414.924H637.749V393.252ZM640.269 404.016V412.44H644.085V404.016H640.269ZM659.527 416.22H689.047V418.704H659.527V416.22ZM663.127 392.712H685.375V402.612H666.151V409.092H663.199V400.2H682.423V395.16H663.127V392.712ZM663.199 407.868H686.131V410.28H663.199V407.868ZM717.448 390.228H720.328V422.808H717.448V390.228ZM703.3 403.548H711.508V405.96H703.3V403.548ZM710.68 391.092H713.488V421.152H710.68V391.092ZM703.696 394.368H706.576C706.576 397.2 706.168 399.924 705.352 402.54C704.56 405.132 703.264 407.556 701.464 409.812C699.664 412.044 697.3 414.036 694.372 415.788L692.644 413.628C695.188 412.092 697.276 410.364 698.908 408.444C700.54 406.5 701.74 404.4 702.508 402.144C703.3 399.864 703.696 397.452 703.696 394.908V394.368ZM694.048 394.368H704.812V396.816H694.048V394.368ZM741.948 395.592H744.36V396.996C744.36 398.844 743.976 400.548 743.208 402.108C742.464 403.668 741.408 405.024 740.04 406.176C738.672 407.328 737.076 408.204 735.252 408.804L733.812 406.428C735.42 405.924 736.836 405.204 738.06 404.268C739.284 403.332 740.232 402.24 740.904 400.992C741.6 399.744 741.948 398.412 741.948 396.996V395.592ZM742.452 395.592H744.9V396.996C744.9 398.292 745.224 399.528 745.872 400.704C746.544 401.856 747.48 402.888 748.68 403.8C749.88 404.688 751.272 405.372 752.856 405.852L751.488 408.156C749.664 407.604 748.068 406.788 746.7 405.708C745.356 404.604 744.312 403.308 743.568 401.82C742.824 400.332 742.452 398.724 742.452 396.996V395.592ZM734.712 394.008H752.1V396.42H734.712V394.008ZM741.948 390.084H744.936V395.016H741.948V390.084ZM756.096 390.228H759.084V409.128H756.096V390.228ZM758.256 398.256H763.872V400.74H758.256V398.256ZM747.42 411.828H749.94V412.692C749.94 413.964 749.628 415.152 749.004 416.256C748.404 417.36 747.552 418.344 746.448 419.208C745.368 420.072 744.12 420.792 742.704 421.368C741.288 421.968 739.776 422.4 738.168 422.664L737.052 420.36C738.444 420.168 739.764 419.832 741.012 419.352C742.26 418.872 743.364 418.296 744.324 417.624C745.284 416.928 746.04 416.16 746.592 415.32C747.144 414.48 747.42 413.604 747.42 412.692V411.828ZM747.96 411.828H750.516V412.692C750.516 413.604 750.792 414.468 751.344 415.284C751.92 416.1 752.688 416.856 753.648 417.552C754.608 418.248 755.7 418.848 756.924 419.352C758.172 419.832 759.492 420.18 760.884 420.396L759.768 422.7C758.16 422.412 756.648 421.968 755.232 421.368C753.816 420.792 752.556 420.072 751.452 419.208C750.372 418.32 749.52 417.324 748.896 416.22C748.272 415.116 747.96 413.94 747.96 412.692V411.828ZM738.312 410.892H759.624V413.34H738.312V410.892ZM775.569 392.748C777.177 392.748 778.593 393.216 779.817 394.152C781.041 395.064 782.001 396.372 782.697 398.076C783.393 399.78 783.741 401.784 783.741 404.088C783.741 406.392 783.393 408.396 782.697 410.1C782.001 411.804 781.041 413.124 779.817 414.06C778.593 414.996 777.177 415.464 775.569 415.464C773.985 415.464 772.569 414.996 771.321 414.06C770.097 413.124 769.137 411.804 768.441 410.1C767.745 408.396 767.397 406.392 767.397 404.088C767.397 401.784 767.745 399.78 768.441 398.076C769.137 396.372 770.097 395.064 771.321 394.152C772.569 393.216 773.985 392.748 775.569 392.748ZM775.569 395.412C774.537 395.412 773.613 395.772 772.797 396.492C772.005 397.188 771.381 398.196 770.925 399.516C770.469 400.812 770.241 402.336 770.241 404.088C770.241 405.84 770.469 407.376 770.925 408.696C771.381 409.992 772.005 411 772.797 411.72C773.613 412.44 774.549 412.8 775.605 412.8C776.637 412.8 777.549 412.44 778.341 411.72C779.157 411 779.781 409.992 780.213 408.696C780.669 407.376 780.897 405.84 780.897 404.088C780.897 402.336 780.669 400.812 780.213 399.516C779.781 398.196 779.157 397.188 778.341 396.492C777.549 395.772 776.625 395.412 775.569 395.412ZM788.961 390.228H791.949V422.808H788.961V390.228ZM791.265 403.224H797.277V405.744H791.265V403.224ZM800.046 416.184H829.566V418.668H800.046V416.184ZM813.258 408.372H816.21V416.904H813.258V408.372ZM803.502 392.532H806.49V398.328H823.05V392.532H826.002V409.2H803.502V392.532ZM806.49 400.776V406.752H823.05V400.776H806.49ZM845.979 401.892H852.243V404.376H845.979V401.892ZM839.931 393.288H842.271V399.516C842.271 401.196 842.091 402.852 841.731 404.484C841.395 406.116 840.891 407.652 840.219 409.092C839.571 410.532 838.779 411.828 837.843 412.98C836.907 414.132 835.851 415.068 834.675 415.788L832.803 413.556C833.907 412.884 834.903 412.044 835.791 411.036C836.679 410.028 837.423 408.9 838.023 407.652C838.647 406.38 839.115 405.06 839.427 403.692C839.763 402.3 839.931 400.908 839.931 399.516V393.288ZM840.507 393.288H842.811V399.408C842.811 400.704 842.955 402.012 843.243 403.332C843.555 404.628 843.987 405.876 844.539 407.076C845.115 408.252 845.823 409.332 846.663 410.316C847.503 411.3 848.451 412.116 849.507 412.764L847.815 415.068C846.639 414.348 845.595 413.436 844.683 412.332C843.771 411.204 843.003 409.944 842.379 408.552C841.755 407.136 841.287 405.648 840.975 404.088C840.663 402.528 840.507 400.968 840.507 399.408V393.288ZM857.967 390.228H860.847V422.808H857.967V390.228ZM851.343 390.912H854.151V421.152H851.343V390.912ZM873.516 407.004H876.468V416.724H873.516V407.004ZM885.54 407.004H888.528V416.724H885.54V407.004ZM866.28 416.148H895.8V418.632H866.28V416.148ZM880.968 392.28C883.272 392.28 885.312 392.628 887.088 393.324C888.864 394.02 890.256 394.992 891.264 396.24C892.296 397.488 892.812 398.964 892.812 400.668C892.812 402.348 892.296 403.824 891.264 405.096C890.256 406.344 888.864 407.316 887.088 408.012C885.312 408.684 883.272 409.02 880.968 409.02C878.688 409.02 876.648 408.684 874.848 408.012C873.072 407.316 871.68 406.344 870.672 405.096C869.664 403.824 869.16 402.348 869.16 400.668C869.16 398.964 869.664 397.488 870.672 396.24C871.68 394.992 873.072 394.02 874.848 393.324C876.648 392.628 878.688 392.28 880.968 392.28ZM880.968 394.656C879.24 394.656 877.704 394.908 876.36 395.412C875.016 395.916 873.96 396.624 873.192 397.536C872.424 398.424 872.04 399.468 872.04 400.668C872.04 401.868 872.424 402.924 873.192 403.836C873.96 404.724 875.016 405.42 876.36 405.924C877.704 406.428 879.24 406.68 880.968 406.68C882.72 406.68 884.268 406.428 885.612 405.924C886.956 405.42 888.012 404.724 888.78 403.836C889.548 402.924 889.932 401.868 889.932 400.668C889.932 399.468 889.548 398.424 888.78 397.536C888.012 396.624 886.956 395.916 885.612 395.412C884.268 394.908 882.72 394.656 880.968 394.656Z" fill="white"/>
<path d="M445.006 559.307C444.176 559.307 443.423 559.151 442.747 558.838C442.071 558.52 441.534 558.062 441.136 557.466C440.739 556.864 440.54 556.136 440.54 555.284C440.54 554.534 440.688 553.926 440.983 553.46C441.278 552.989 441.673 552.619 442.168 552.352C442.662 552.085 443.207 551.886 443.804 551.756C444.406 551.619 445.011 551.511 445.619 551.432C446.415 551.33 447.06 551.253 447.554 551.202C448.054 551.145 448.418 551.051 448.645 550.92C448.878 550.79 448.994 550.562 448.994 550.239V550.17C448.994 549.33 448.764 548.676 448.304 548.21C447.849 547.744 447.159 547.511 446.233 547.511C445.273 547.511 444.52 547.722 443.974 548.142C443.429 548.562 443.045 549.011 442.824 549.489L440.915 548.807C441.256 548.011 441.71 547.392 442.278 546.949C442.852 546.5 443.477 546.187 444.153 546.011C444.835 545.83 445.506 545.739 446.165 545.739C446.585 545.739 447.068 545.79 447.614 545.892C448.165 545.989 448.696 546.19 449.207 546.497C449.724 546.804 450.153 547.267 450.494 547.886C450.835 548.506 451.006 549.335 451.006 550.375V559H448.994V557.227H448.892C448.756 557.511 448.528 557.815 448.21 558.139C447.892 558.463 447.469 558.739 446.94 558.966C446.412 559.193 445.767 559.307 445.006 559.307ZM445.312 557.5C446.108 557.5 446.778 557.344 447.324 557.031C447.875 556.719 448.29 556.315 448.568 555.821C448.852 555.327 448.994 554.807 448.994 554.261V552.42C448.909 552.523 448.722 552.616 448.432 552.702C448.148 552.781 447.818 552.852 447.443 552.915C447.074 552.972 446.713 553.023 446.361 553.068C446.014 553.108 445.733 553.142 445.517 553.17C444.994 553.239 444.506 553.349 444.051 553.503C443.602 553.651 443.239 553.875 442.96 554.176C442.688 554.472 442.551 554.875 442.551 555.386C442.551 556.085 442.81 556.614 443.327 556.972C443.849 557.324 444.511 557.5 445.312 557.5ZM463.95 548.841L462.143 549.352C462.029 549.051 461.862 548.759 461.64 548.474C461.424 548.185 461.129 547.946 460.754 547.759C460.379 547.571 459.898 547.477 459.313 547.477C458.512 547.477 457.844 547.662 457.31 548.031C456.782 548.395 456.518 548.858 456.518 549.42C456.518 549.92 456.7 550.315 457.063 550.605C457.427 550.895 457.995 551.136 458.768 551.33L460.711 551.807C461.881 552.091 462.754 552.526 463.327 553.111C463.901 553.69 464.188 554.437 464.188 555.352C464.188 556.102 463.972 556.773 463.54 557.364C463.114 557.955 462.518 558.42 461.751 558.761C460.984 559.102 460.092 559.273 459.075 559.273C457.739 559.273 456.634 558.983 455.759 558.403C454.884 557.824 454.33 556.977 454.097 555.864L456.006 555.386C456.188 556.091 456.532 556.619 457.038 556.972C457.549 557.324 458.217 557.5 459.04 557.5C459.978 557.5 460.722 557.301 461.273 556.903C461.83 556.5 462.109 556.017 462.109 555.455C462.109 555 461.95 554.619 461.631 554.312C461.313 554 460.825 553.767 460.165 553.614L457.984 553.102C456.785 552.818 455.904 552.378 455.342 551.781C454.785 551.179 454.506 550.426 454.506 549.523C454.506 548.784 454.714 548.131 455.129 547.562C455.549 546.994 456.12 546.548 456.842 546.224C457.569 545.901 458.393 545.739 459.313 545.739C460.609 545.739 461.626 546.023 462.364 546.591C463.109 547.159 463.637 547.909 463.95 548.841ZM476.489 548.841L474.682 549.352C474.568 549.051 474.401 548.759 474.179 548.474C473.963 548.185 473.668 547.946 473.293 547.759C472.918 547.571 472.438 547.477 471.852 547.477C471.051 547.477 470.384 547.662 469.849 548.031C469.321 548.395 469.057 548.858 469.057 549.42C469.057 549.92 469.239 550.315 469.602 550.605C469.966 550.895 470.534 551.136 471.307 551.33L473.25 551.807C474.42 552.091 475.293 552.526 475.866 553.111C476.44 553.69 476.727 554.437 476.727 555.352C476.727 556.102 476.511 556.773 476.08 557.364C475.653 557.955 475.057 558.42 474.29 558.761C473.523 559.102 472.631 559.273 471.614 559.273C470.278 559.273 469.173 558.983 468.298 558.403C467.423 557.824 466.869 556.977 466.636 555.864L468.545 555.386C468.727 556.091 469.071 556.619 469.577 556.972C470.088 557.324 470.756 557.5 471.58 557.5C472.517 557.5 473.261 557.301 473.812 556.903C474.369 556.5 474.648 556.017 474.648 555.455C474.648 555 474.489 554.619 474.17 554.312C473.852 554 473.364 553.767 472.705 553.614L470.523 553.102C469.324 552.818 468.443 552.378 467.881 551.781C467.324 551.179 467.045 550.426 467.045 549.523C467.045 548.784 467.253 548.131 467.668 547.562C468.088 546.994 468.659 546.548 469.381 546.224C470.108 545.901 470.932 545.739 471.852 545.739C473.148 545.739 474.165 546.023 474.903 546.591C475.648 547.159 476.176 547.909 476.489 548.841ZM485.244 559.273C483.982 559.273 482.894 558.994 481.979 558.438C481.07 557.875 480.369 557.091 479.874 556.085C479.386 555.074 479.141 553.898 479.141 552.557C479.141 551.216 479.386 550.034 479.874 549.011C480.369 547.983 481.056 547.182 481.937 546.608C482.823 546.028 483.857 545.739 485.039 545.739C485.721 545.739 486.394 545.852 487.059 546.08C487.724 546.307 488.329 546.676 488.874 547.188C489.42 547.693 489.854 548.364 490.178 549.199C490.502 550.034 490.664 551.062 490.664 552.284V553.136H480.573V551.398H488.619C488.619 550.659 488.471 550 488.175 549.42C487.886 548.841 487.471 548.384 486.931 548.048C486.397 547.713 485.766 547.545 485.039 547.545C484.238 547.545 483.545 547.744 482.96 548.142C482.38 548.534 481.934 549.045 481.621 549.676C481.309 550.307 481.153 550.983 481.153 551.705V552.864C481.153 553.852 481.323 554.69 481.664 555.378C482.011 556.06 482.491 556.58 483.104 556.938C483.718 557.29 484.431 557.466 485.244 557.466C485.772 557.466 486.249 557.392 486.675 557.244C487.107 557.091 487.479 556.864 487.792 556.562C488.104 556.256 488.346 555.875 488.516 555.42L490.46 555.966C490.255 556.625 489.911 557.205 489.428 557.705C488.945 558.199 488.349 558.585 487.638 558.864C486.928 559.136 486.13 559.273 485.244 559.273ZM493.724 559V545.909H495.667V547.955H495.837C496.11 547.256 496.55 546.713 497.158 546.327C497.766 545.935 498.496 545.739 499.349 545.739C500.212 545.739 500.931 545.935 501.505 546.327C502.085 546.713 502.536 547.256 502.86 547.955H502.996C503.332 547.278 503.835 546.741 504.505 546.344C505.175 545.94 505.979 545.739 506.917 545.739C508.087 545.739 509.045 546.105 509.789 546.838C510.533 547.565 510.906 548.699 510.906 550.239V559H508.894V550.239C508.894 549.273 508.63 548.582 508.102 548.168C507.573 547.753 506.951 547.545 506.235 547.545C505.315 547.545 504.602 547.824 504.096 548.381C503.59 548.932 503.337 549.631 503.337 550.477V559H501.292V550.034C501.292 549.29 501.05 548.69 500.567 548.236C500.085 547.776 499.462 547.545 498.701 547.545C498.178 547.545 497.69 547.685 497.235 547.963C496.786 548.241 496.423 548.628 496.144 549.122C495.871 549.611 495.735 550.176 495.735 550.818V559H493.724ZM514.856 559V541.545H516.867V547.989H517.038C517.185 547.761 517.39 547.472 517.651 547.119C517.918 546.761 518.299 546.443 518.793 546.165C519.293 545.881 519.969 545.739 520.822 545.739C521.924 545.739 522.896 546.014 523.737 546.565C524.577 547.116 525.234 547.898 525.705 548.909C526.177 549.92 526.413 551.114 526.413 552.489C526.413 553.875 526.177 555.077 525.705 556.094C525.234 557.105 524.58 557.889 523.745 558.446C522.91 558.997 521.947 559.273 520.856 559.273C520.015 559.273 519.342 559.134 518.836 558.855C518.33 558.571 517.941 558.25 517.668 557.892C517.396 557.528 517.185 557.227 517.038 556.989H516.799V559H514.856ZM516.833 552.455C516.833 553.443 516.978 554.315 517.268 555.071C517.558 555.821 517.981 556.409 518.538 556.835C519.094 557.256 519.776 557.466 520.583 557.466C521.424 557.466 522.126 557.244 522.688 556.801C523.256 556.352 523.683 555.75 523.967 554.994C524.256 554.233 524.401 553.386 524.401 552.455C524.401 551.534 524.259 550.705 523.975 549.966C523.697 549.222 523.273 548.634 522.705 548.202C522.143 547.764 521.435 547.545 520.583 547.545C519.765 547.545 519.077 547.753 518.521 548.168C517.964 548.577 517.543 549.151 517.259 549.889C516.975 550.622 516.833 551.477 516.833 552.455ZM531.501 541.545V559H529.489V541.545H531.501ZM536.48 563.909C536.139 563.909 535.835 563.881 535.568 563.824C535.301 563.773 535.116 563.722 535.014 563.67L535.526 561.898C536.014 562.023 536.446 562.068 536.821 562.034C537.196 562 537.528 561.832 537.818 561.531C538.114 561.236 538.384 560.756 538.628 560.091L539.003 559.068L534.162 545.909H536.344L539.957 556.341H540.094L543.707 545.909H545.889L540.332 560.909C540.082 561.585 539.773 562.145 539.403 562.588C539.034 563.037 538.605 563.369 538.116 563.585C537.634 563.801 537.088 563.909 536.48 563.909ZM556.044 550.58V552.455H548.408V550.58H556.044ZM565.276 545.909V547.614H558.492V545.909H565.276ZM560.469 542.773H562.481V555.25C562.481 555.818 562.563 556.244 562.728 556.528C562.898 556.807 563.114 556.994 563.376 557.091C563.643 557.182 563.924 557.227 564.219 557.227C564.441 557.227 564.623 557.216 564.765 557.193C564.907 557.165 565.021 557.142 565.106 557.125L565.515 558.932C565.379 558.983 565.188 559.034 564.944 559.085C564.7 559.142 564.39 559.17 564.015 559.17C563.447 559.17 562.89 559.048 562.344 558.804C561.805 558.56 561.356 558.188 560.998 557.688C560.646 557.188 560.469 556.557 560.469 555.795V542.773ZM568.302 559V545.909H570.245V547.886H570.381C570.62 547.239 571.052 546.713 571.677 546.31C572.302 545.906 573.006 545.705 573.79 545.705C573.938 545.705 574.123 545.707 574.344 545.713C574.566 545.719 574.734 545.727 574.847 545.739V547.784C574.779 547.767 574.623 547.741 574.379 547.707C574.14 547.668 573.887 547.648 573.62 547.648C572.984 547.648 572.415 547.781 571.915 548.048C571.421 548.31 571.029 548.673 570.739 549.139C570.455 549.599 570.313 550.125 570.313 550.716V559H568.302ZM581.084 559.307C580.254 559.307 579.501 559.151 578.825 558.838C578.149 558.52 577.612 558.062 577.214 557.466C576.817 556.864 576.618 556.136 576.618 555.284C576.618 554.534 576.766 553.926 577.061 553.46C577.357 552.989 577.751 552.619 578.246 552.352C578.74 552.085 579.286 551.886 579.882 551.756C580.484 551.619 581.089 551.511 581.697 551.432C582.493 551.33 583.138 551.253 583.632 551.202C584.132 551.145 584.496 551.051 584.723 550.92C584.956 550.79 585.072 550.562 585.072 550.239V550.17C585.072 549.33 584.842 548.676 584.382 548.21C583.928 547.744 583.237 547.511 582.311 547.511C581.351 547.511 580.598 547.722 580.053 548.142C579.507 548.562 579.124 549.011 578.902 549.489L576.993 548.807C577.334 548.011 577.788 547.392 578.357 546.949C578.93 546.5 579.555 546.187 580.232 546.011C580.913 545.83 581.584 545.739 582.243 545.739C582.663 545.739 583.146 545.79 583.692 545.892C584.243 545.989 584.774 546.19 585.286 546.497C585.803 546.804 586.232 547.267 586.572 547.886C586.913 548.506 587.084 549.335 587.084 550.375V559H585.072V557.227H584.97C584.834 557.511 584.607 557.815 584.288 558.139C583.97 558.463 583.547 558.739 583.018 558.966C582.49 559.193 581.845 559.307 581.084 559.307ZM581.391 557.5C582.186 557.5 582.857 557.344 583.402 557.031C583.953 556.719 584.368 556.315 584.646 555.821C584.93 555.327 585.072 554.807 585.072 554.261V552.42C584.987 552.523 584.8 552.616 584.51 552.702C584.226 552.781 583.896 552.852 583.521 552.915C583.152 552.972 582.791 553.023 582.439 553.068C582.092 553.108 581.811 553.142 581.595 553.17C581.072 553.239 580.584 553.349 580.129 553.503C579.68 553.651 579.317 553.875 579.038 554.176C578.766 554.472 578.629 554.875 578.629 555.386C578.629 556.085 578.888 556.614 579.405 556.972C579.928 557.324 580.589 557.5 581.391 557.5ZM596.073 559.273C594.846 559.273 593.789 558.983 592.903 558.403C592.016 557.824 591.335 557.026 590.857 556.009C590.38 554.991 590.141 553.83 590.141 552.523C590.141 551.193 590.386 550.02 590.874 549.003C591.369 547.98 592.056 547.182 592.937 546.608C593.823 546.028 594.857 545.739 596.039 545.739C596.96 545.739 597.789 545.909 598.528 546.25C599.266 546.591 599.871 547.068 600.343 547.682C600.815 548.295 601.107 549.011 601.221 549.83H599.21C599.056 549.233 598.715 548.705 598.187 548.244C597.664 547.778 596.96 547.545 596.073 547.545C595.289 547.545 594.602 547.75 594.011 548.159C593.425 548.562 592.968 549.134 592.638 549.872C592.315 550.605 592.153 551.466 592.153 552.455C592.153 553.466 592.312 554.347 592.63 555.097C592.954 555.847 593.408 556.429 593.994 556.844C594.585 557.259 595.278 557.466 596.073 557.466C596.596 557.466 597.07 557.375 597.496 557.193C597.923 557.011 598.283 556.75 598.579 556.409C598.874 556.068 599.085 555.659 599.21 555.182H601.221C601.107 555.955 600.826 556.651 600.377 557.27C599.934 557.884 599.346 558.372 598.613 558.736C597.886 559.094 597.039 559.273 596.073 559.273ZM606.036 554.227L606.002 551.739H606.411L612.138 545.909H614.627L608.525 552.08H608.354L606.036 554.227ZM604.161 559V541.545H606.173V559H604.161ZM612.479 559L607.366 552.523L608.798 551.125L615.036 559H612.479ZM622.165 559.273C620.904 559.273 619.816 558.994 618.901 558.438C617.992 557.875 617.29 557.091 616.796 556.085C616.308 555.074 616.063 553.898 616.063 552.557C616.063 551.216 616.308 550.034 616.796 549.011C617.29 547.983 617.978 547.182 618.859 546.608C619.745 546.028 620.779 545.739 621.961 545.739C622.643 545.739 623.316 545.852 623.981 546.08C624.646 546.307 625.251 546.676 625.796 547.188C626.342 547.693 626.776 548.364 627.1 549.199C627.424 550.034 627.586 551.062 627.586 552.284V553.136H617.495V551.398H625.54C625.54 550.659 625.393 550 625.097 549.42C624.808 548.841 624.393 548.384 623.853 548.048C623.319 547.713 622.688 547.545 621.961 547.545C621.16 547.545 620.467 547.744 619.881 548.142C619.302 548.534 618.856 549.045 618.543 549.676C618.231 550.307 618.075 550.983 618.075 551.705V552.864C618.075 553.852 618.245 554.69 618.586 555.378C618.933 556.06 619.413 556.58 620.026 556.938C620.64 557.29 621.353 557.466 622.165 557.466C622.694 557.466 623.171 557.392 623.597 557.244C624.029 557.091 624.401 556.864 624.714 556.562C625.026 556.256 625.268 555.875 625.438 555.42L627.381 555.966C627.177 556.625 626.833 557.205 626.35 557.705C625.867 558.199 625.271 558.585 624.56 558.864C623.85 559.136 623.052 559.273 622.165 559.273ZM630.646 559V545.909H632.589V547.886H632.725C632.964 547.239 633.396 546.713 634.021 546.31C634.646 545.906 635.35 545.705 636.134 545.705C636.282 545.705 636.467 545.707 636.688 545.713C636.91 545.719 637.077 545.727 637.191 545.739V547.784C637.123 547.767 636.967 547.741 636.722 547.707C636.484 547.668 636.231 547.648 635.964 547.648C635.327 547.648 634.759 547.781 634.259 548.048C633.765 548.31 633.373 548.673 633.083 549.139C632.799 549.599 632.657 550.125 632.657 550.716V559H630.646ZM639.541 559.136C639.121 559.136 638.76 558.986 638.459 558.685C638.158 558.384 638.007 558.023 638.007 557.602C638.007 557.182 638.158 556.821 638.459 556.52C638.76 556.219 639.121 556.068 639.541 556.068C639.962 556.068 640.322 556.219 640.624 556.52C640.925 556.821 641.075 557.182 641.075 557.602C641.075 557.881 641.004 558.136 640.862 558.369C640.726 558.602 640.541 558.79 640.308 558.932C640.081 559.068 639.825 559.136 639.541 559.136ZM655.389 545.909L650.548 559H648.503L643.662 545.909H645.844L649.457 556.341H649.594L653.207 545.909H655.389ZM663.064 559.273C661.803 559.273 660.714 558.994 659.8 558.438C658.891 557.875 658.189 557.091 657.695 556.085C657.206 555.074 656.962 553.898 656.962 552.557C656.962 551.216 657.206 550.034 657.695 549.011C658.189 547.983 658.876 547.182 659.757 546.608C660.643 546.028 661.678 545.739 662.859 545.739C663.541 545.739 664.214 545.852 664.879 546.08C665.544 546.307 666.149 546.676 666.695 547.188C667.24 547.693 667.675 548.364 667.999 549.199C668.322 550.034 668.484 551.062 668.484 552.284V553.136H658.393V551.398H666.439C666.439 550.659 666.291 550 665.996 549.42C665.706 548.841 665.291 548.384 664.751 548.048C664.217 547.713 663.587 547.545 662.859 547.545C662.058 547.545 661.365 547.744 660.78 548.142C660.2 548.534 659.754 549.045 659.442 549.676C659.129 550.307 658.973 550.983 658.973 551.705V552.864C658.973 553.852 659.143 554.69 659.484 555.378C659.831 556.06 660.311 556.58 660.925 556.938C661.538 557.29 662.251 557.466 663.064 557.466C663.592 557.466 664.07 557.392 664.496 557.244C664.928 557.091 665.3 556.864 665.612 556.562C665.925 556.256 666.166 555.875 666.337 555.42L668.28 555.966C668.075 556.625 667.732 557.205 667.249 557.705C666.766 558.199 666.169 558.585 665.459 558.864C664.749 559.136 663.95 559.273 663.064 559.273ZM671.544 559V545.909H673.487V547.886H673.624C673.862 547.239 674.294 546.713 674.919 546.31C675.544 545.906 676.249 545.705 677.033 545.705C677.18 545.705 677.365 545.707 677.587 545.713C677.808 545.719 677.976 545.727 678.089 545.739V547.784C678.021 547.767 677.865 547.741 677.621 547.707C677.382 547.668 677.129 547.648 676.862 547.648C676.226 547.648 675.658 547.781 675.158 548.048C674.663 548.31 674.271 548.673 673.982 549.139C673.697 549.599 673.555 550.125 673.555 550.716V559H671.544ZM685.393 559.273C684.166 559.273 683.109 558.983 682.223 558.403C681.337 557.824 680.655 557.026 680.178 556.009C679.7 554.991 679.462 553.83 679.462 552.523C679.462 551.193 679.706 550.02 680.195 549.003C680.689 547.98 681.376 547.182 682.257 546.608C683.143 546.028 684.178 545.739 685.359 545.739C686.28 545.739 687.109 545.909 687.848 546.25C688.587 546.591 689.192 547.068 689.663 547.682C690.135 548.295 690.428 549.011 690.541 549.83H688.53C688.376 549.233 688.036 548.705 687.507 548.244C686.984 547.778 686.28 547.545 685.393 547.545C684.609 547.545 683.922 547.75 683.331 548.159C682.746 548.562 682.288 549.134 681.959 549.872C681.635 550.605 681.473 551.466 681.473 552.455C681.473 553.466 681.632 554.347 681.95 555.097C682.274 555.847 682.729 556.429 683.314 556.844C683.905 557.259 684.598 557.466 685.393 557.466C685.916 557.466 686.391 557.375 686.817 557.193C687.243 557.011 687.604 556.75 687.899 556.409C688.195 556.068 688.405 555.659 688.53 555.182H690.541C690.428 555.955 690.146 556.651 689.697 557.27C689.254 557.884 688.666 558.372 687.933 558.736C687.206 559.094 686.359 559.273 685.393 559.273ZM698.97 559.273C697.709 559.273 696.621 558.994 695.706 558.438C694.797 557.875 694.095 557.091 693.601 556.085C693.112 555.074 692.868 553.898 692.868 552.557C692.868 551.216 693.112 550.034 693.601 549.011C694.095 547.983 694.783 547.182 695.663 546.608C696.55 546.028 697.584 545.739 698.766 545.739C699.447 545.739 700.121 545.852 700.786 546.08C701.45 546.307 702.055 546.676 702.601 547.188C703.146 547.693 703.581 548.364 703.905 549.199C704.229 550.034 704.391 551.062 704.391 552.284V553.136H694.3V551.398H702.345C702.345 550.659 702.197 550 701.902 549.42C701.612 548.841 701.197 548.384 700.658 548.048C700.124 547.713 699.493 547.545 698.766 547.545C697.964 547.545 697.271 547.744 696.686 548.142C696.107 548.534 695.661 549.045 695.348 549.676C695.036 550.307 694.879 550.983 694.879 551.705V552.864C694.879 553.852 695.05 554.69 695.391 555.378C695.737 556.06 696.217 556.58 696.831 556.938C697.445 557.29 698.158 557.466 698.97 557.466C699.499 557.466 699.976 557.392 700.402 557.244C700.834 557.091 701.206 556.864 701.518 556.562C701.831 556.256 702.072 555.875 702.243 555.42L704.186 555.966C703.982 556.625 703.638 557.205 703.155 557.705C702.672 558.199 702.075 558.585 701.365 558.864C700.655 559.136 699.857 559.273 698.97 559.273ZM709.462 541.545V559H707.45V541.545H709.462ZM714.612 559.136C714.191 559.136 713.83 558.986 713.529 558.685C713.228 558.384 713.077 558.023 713.077 557.602C713.077 557.182 713.228 556.821 713.529 556.52C713.83 556.219 714.191 556.068 714.612 556.068C715.032 556.068 715.393 556.219 715.694 556.52C715.995 556.821 716.146 557.182 716.146 557.602C716.146 557.881 716.075 558.136 715.933 558.369C715.796 558.602 715.612 558.79 715.379 558.932C715.151 559.068 714.896 559.136 714.612 559.136ZM723.607 559.307C722.778 559.307 722.025 559.151 721.349 558.838C720.673 558.52 720.136 558.062 719.738 557.466C719.34 556.864 719.141 556.136 719.141 555.284C719.141 554.534 719.289 553.926 719.585 553.46C719.88 552.989 720.275 552.619 720.769 552.352C721.263 552.085 721.809 551.886 722.406 551.756C723.008 551.619 723.613 551.511 724.221 551.432C725.016 551.33 725.661 551.253 726.156 551.202C726.656 551.145 727.019 551.051 727.246 550.92C727.479 550.79 727.596 550.562 727.596 550.239V550.17C727.596 549.33 727.366 548.676 726.906 548.21C726.451 547.744 725.761 547.511 724.835 547.511C723.874 547.511 723.121 547.722 722.576 548.142C722.031 548.562 721.647 549.011 721.425 549.489L719.516 548.807C719.857 548.011 720.312 547.392 720.88 546.949C721.454 546.5 722.079 546.187 722.755 546.011C723.437 545.83 724.107 545.739 724.766 545.739C725.187 545.739 725.67 545.79 726.215 545.892C726.766 545.989 727.298 546.19 727.809 546.497C728.326 546.804 728.755 547.267 729.096 547.886C729.437 548.506 729.607 549.335 729.607 550.375V559H727.596V557.227H727.494C727.357 557.511 727.13 557.815 726.812 558.139C726.494 558.463 726.07 558.739 725.542 558.966C725.013 559.193 724.369 559.307 723.607 559.307ZM723.914 557.5C724.71 557.5 725.38 557.344 725.925 557.031C726.477 556.719 726.891 556.315 727.17 555.821C727.454 555.327 727.596 554.807 727.596 554.261V552.42C727.511 552.523 727.323 552.616 727.033 552.702C726.749 552.781 726.42 552.852 726.045 552.915C725.675 552.972 725.315 553.023 724.962 553.068C724.616 553.108 724.335 553.142 724.119 553.17C723.596 553.239 723.107 553.349 722.653 553.503C722.204 553.651 721.84 553.875 721.562 554.176C721.289 554.472 721.153 554.875 721.153 555.386C721.153 556.085 721.411 556.614 721.928 556.972C722.451 557.324 723.113 557.5 723.914 557.5ZM733.278 563.909V545.909H735.222V547.989H735.46C735.608 547.761 735.813 547.472 736.074 547.119C736.341 546.761 736.722 546.443 737.216 546.165C737.716 545.881 738.392 545.739 739.244 545.739C740.347 545.739 741.318 546.014 742.159 546.565C743 547.116 743.656 547.898 744.128 548.909C744.599 549.92 744.835 551.114 744.835 552.489C744.835 553.875 744.599 555.077 744.128 556.094C743.656 557.105 743.003 557.889 742.168 558.446C741.332 558.997 740.369 559.273 739.278 559.273C738.438 559.273 737.764 559.134 737.259 558.855C736.753 558.571 736.364 558.25 736.091 557.892C735.818 557.528 735.608 557.227 735.46 556.989H735.29V563.909H733.278ZM735.256 552.455C735.256 553.443 735.401 554.315 735.69 555.071C735.98 555.821 736.403 556.409 736.96 556.835C737.517 557.256 738.199 557.466 739.006 557.466C739.847 557.466 740.548 557.244 741.111 556.801C741.679 556.352 742.105 555.75 742.389 554.994C742.679 554.233 742.824 553.386 742.824 552.455C742.824 551.534 742.682 550.705 742.398 549.966C742.119 549.222 741.696 548.634 741.128 548.202C740.565 547.764 739.858 547.545 739.006 547.545C738.188 547.545 737.5 547.753 736.943 548.168C736.386 548.577 735.966 549.151 735.682 549.889C735.398 550.622 735.256 551.477 735.256 552.455ZM747.903 563.909V545.909H749.847V547.989H750.085C750.233 547.761 750.438 547.472 750.699 547.119C750.966 546.761 751.347 546.443 751.841 546.165C752.341 545.881 753.017 545.739 753.869 545.739C754.972 545.739 755.943 546.014 756.784 546.565C757.625 547.116 758.281 547.898 758.753 548.909C759.224 549.92 759.46 551.114 759.46 552.489C759.46 553.875 759.224 555.077 758.753 556.094C758.281 557.105 757.628 557.889 756.793 558.446C755.957 558.997 754.994 559.273 753.903 559.273C753.063 559.273 752.389 559.134 751.884 558.855C751.378 558.571 750.989 558.25 750.716 557.892C750.443 557.528 750.233 557.227 750.085 556.989H749.915V563.909H747.903ZM749.881 552.455C749.881 553.443 750.026 554.315 750.315 555.071C750.605 555.821 751.028 556.409 751.585 556.835C752.142 557.256 752.824 557.466 753.631 557.466C754.472 557.466 755.173 557.244 755.736 556.801C756.304 556.352 756.73 555.75 757.014 554.994C757.304 554.233 757.449 553.386 757.449 552.455C757.449 551.534 757.307 550.705 757.023 549.966C756.744 549.222 756.321 548.634 755.753 548.202C755.19 547.764 754.483 547.545 753.631 547.545C752.813 547.545 752.125 547.753 751.568 548.168C751.011 548.577 750.591 549.151 750.307 549.889C750.023 550.622 749.881 551.477 749.881 552.455Z" fill="white"/>
</g>
<defs>
<linearGradient id="paint0_linear_7_19" x1="0" y1="0" x2="518.569" y2="987.751" gradientUnits="userSpaceOnUse">
<stop stop-color="#1E40AF"/>
<stop offset="1" stop-color="#2563EB"/>
</linearGradient>
<clipPath id="clip0_7_19">
<rect width="1200" height="630" fill="white"/>
</clipPath>
</defs>
</svg>
